<?xml version="1.0" standalone="no"?>
<!DOCTYPE svg PUBLIC "-//W3C//DTD SVG 20010904//EN"
 "http://www.w3.org/TR/2001/REC-SVG-20010904/DTD/svg10.dtd">
<svg version="1.0" xmlns="http://www.w3.org/2000/svg"
 width="48.000000pt" height="48.000000pt" viewBox="0 0 100.000000 100.000000"
 preserveAspectRatio="xMidYMid meet">

<g transform="translate(0.000000,100.000000) scale(0.100000,-0.100000)"
fill="#000000" stroke="none">
<path d="M500 926 c0 -8 4 -17 9 -20 5 -4 7 3 4 14 -6 23 -13 26 -13 6z"/>
<path d="M345 793 c-8 -79 -21 -112 -84 -208 -60 -92 -76 -109 -96 -101 -9 3
-13 2 -10 -4 3 -6 14 -10 24 -10 24 0 61 -33 61 -55 0 -10 25 -43 56 -74 32
-30 51 -45 44 -32 -11 21 -10 23 4 18 9 -4 16 -2 16 3 0 5 19 0 43 -13 83 -43
195 -28 246 34 16 19 32 31 36 27 4 -4 -4 -19 -18 -33 -23 -26 -27 -65 -5 -65
5 0 6 5 3 10 -4 6 9 29 29 50 20 22 36 45 36 51 0 5 5 7 11 3 6 -3 8 -15 5
-27 -4 -18 -3 -19 10 -5 13 13 14 20 4 38 -6 12 -10 23 -8 24 37 26 58 46 47
46 -8 0 -48 -11 -89 -24 -57 -18 -81 -21 -102 -14 -29 10 -35 22 -18 33 5 3
15 16 21 28 12 22 12 22 -13 -1 -59 -54 -149 -45 -205 22 l-26 31 27 3 c14 2
24 8 21 13 -4 5 -2 9 4 9 13 0 25 -45 16 -59 -3 -7 2 -11 14 -11 12 0 21 5 21
12 0 9 3 9 13 -1 10 -10 8 -15 -7 -27 -18 -13 -16 -14 28 -14 41 0 52 5 78 33
51 55 63 70 52 64 -8 -5 -11 2 -10 18 1 32 23 40 37 14 6 -13 16 -18 26 -15
12 5 14 1 10 -13 -6 -24 16 -46 39 -37 22 8 14 49 -13 61 -12 5 -24 17 -26 27
-3 10 -16 22 -29 27 -19 8 -19 10 -4 10 16 1 17 6 11 39 -4 20 -11 63 -15 96
-5 32 -11 61 -15 64 -9 9 -75 -29 -86 -50 -13 -25 -105 -27 -95 -2 3 9 6 17 6
18 0 2 11 1 25 -2 19 -3 25 0 25 14 0 15 -2 16 -9 5 -7 -11 -9 -11 -13 0 -4
11 -9 10 -25 -4 -19 -17 -50 -15 -63 4 -3 4 -17 10 -32 14 -26 7 -26 6 -33
-62z m232 -95 c31 -30 49 -68 32 -68 -6 0 -5 -8 1 -19 18 -34 11 -36 -20 -6
-24 23 -39 28 -80 29 -33 1 -50 5 -50 14 0 16 -15 15 -30 -3 -15 -18 -30 -11
-30 14 0 21 35 56 70 70 35 14 70 4 107 -31z m-67 -123 c0 -8 -7 -15 -15 -15
-16 0 -20 12 -8 23 11 12 23 8 23 -8z m-246 -171 c3 -8 2 -12 -4 -9 -6 3 -10
10 -10 16 0 14 7 11 14 -7z m47 -28 c6 3 16 0 25 -6 11 -10 11 -16 3 -26 -12
-15 -33 -9 -23 7 3 5 0 8 -8 7 -7 -2 -13 7 -15 22 -1 14 0 17 3 7 3 -9 10 -15
15 -11z"/>
<path d="M653 510 c-13 -19 -8 -50 7 -50 23 0 40 15 40 35 0 18 -16 35 -33 35
-1 0 -8 -9 -14 -20z"/>
</g>
</svg>
