<?xml version="1.0" standalone="no"?>
<!DOCTYPE svg PUBLIC "-//W3C//DTD SVG 20010904//EN"
 "http://www.w3.org/TR/2001/REC-SVG-20010904/DTD/svg10.dtd">
<svg version="1.0" xmlns="http://www.w3.org/2000/svg"
 width="48.000000pt" height="48.000000pt" viewBox="0 0 100.000000 100.000000"
 preserveAspectRatio="xMidYMid meet">

<g transform="translate(0.000000,100.000000) scale(0.100000,-0.100000)"
fill="#000000" stroke="none">
<path d="M360 925 c0 -24 5 -35 15 -35 8 0 15 7 15 15 0 8 5 15 10 15 6 0 10
-7 10 -15 0 -11 12 -15 45 -15 25 0 45 -4 45 -10 0 -5 -20 -10 -45 -10 -25 0
-45 5 -45 10 0 23 -21 7 -26 -20 -4 -16 -10 -30 -15 -30 -5 0 -9 14 -9 30 0
20 -5 30 -15 30 -8 0 -15 -7 -15 -15 0 -8 -7 -15 -15 -15 -8 0 -15 -4 -15 -10
0 -5 7 -10 15 -10 8 0 15 -7 15 -15 0 -8 5 -15 10 -15 6 0 10 -13 10 -30 0
-16 -4 -30 -10 -30 -5 0 -10 -7 -10 -15 0 -8 -7 -15 -15 -15 -8 0 -15 7 -15
15 0 8 7 15 15 15 10 0 15 10 15 30 0 20 -5 30 -15 30 -10 0 -15 -10 -15 -30
0 -20 -5 -30 -15 -30 -11 0 -15 -12 -15 -45 0 -33 -4 -45 -15 -45 -11 0 -15
-11 -15 -39 0 -25 -5 -41 -15 -45 -10 -3 -15 -19 -15 -46 0 -29 -4 -40 -15
-40 -10 0 -15 -10 -15 -30 0 -22 -5 -30 -18 -30 -13 0 -18 -8 -18 -25 0 -22 4
-25 33 -25 23 0 33 -5 33 -15 0 -19 86 -21 94 -2 3 6 3 0 0 -15 -6 -25 -4 -27
38 -30 28 -2 42 -7 40 -15 -1 -9 12 -13 43 -13 25 0 45 -4 45 -10 0 -6 27 -10
60 -10 57 0 60 1 60 25 0 14 6 25 14 25 9 0 12 8 8 25 -3 17 1 27 12 31 9 3
16 17 16 30 0 15 6 24 15 24 10 0 15 10 15 30 0 20 5 30 15 30 10 0 15 10 15
30 0 20 5 30 15 30 10 0 15 10 15 30 0 20 5 30 15 30 9 0 15 9 15 25 0 16 6
25 15 25 10 0 15 10 15 30 0 20 5 30 15 30 10 0 15 10 15 30 0 17 5 30 11 30
6 0 9 12 7 28 -2 19 -9 28 -25 30 -13 2 -23 8 -23 13 0 5 -25 9 -55 9 -40 0
-57 4 -61 15 -4 10 -20 15 -45 15 -28 0 -39 4 -39 15 0 12 -13 15 -60 15 -53
0 -60 2 -60 20 0 18 -7 20 -55 20 l-55 0 0 -35z m250 -75 c0 -5 -21 -10 -46
-10 -27 0 -43 4 -39 10 3 6 24 10 46 10 21 0 39 -4 39 -10z m120 -25 c0 -8 7
-15 15 -15 8 0 15 -7 15 -15 0 -8 -7 -15 -15 -15 -8 0 -15 7 -15 15 0 11 -12
15 -45 15 -42 0 -54 7 -38 23 3 4 24 7 45 7 27 0 38 -4 38 -15z m-260 -75 c0
-19 -5 -30 -14 -30 -8 0 -13 -10 -12 -27 1 -19 -4 -28 -14 -28 -10 0 -16 13
-18 43 -2 33 0 42 12 42 9 0 16 7 16 15 0 8 7 15 15 15 10 0 15 -10 15 -30z
m60 15 c0 -8 7 -15 15 -15 10 0 15 -10 15 -30 0 -20 -5 -30 -15 -30 -8 0 -15
-7 -15 -15 0 -10 -10 -15 -30 -15 -27 0 -30 3 -30 30 0 20 5 30 15 30 10 0 15
10 15 30 0 20 5 30 15 30 8 0 15 -7 15 -15z m90 -54 c0 -56 -8 -71 -39 -71
-22 0 -27 4 -26 22 1 12 7 24 13 26 7 2 12 17 12 33 0 22 5 29 20 29 17 0 20
-7 20 -39z m-290 -66 c0 -8 -7 -15 -15 -15 -8 0 -15 7 -15 15 0 8 7 15 15 15
8 0 15 -7 15 -15z m200 -31 c0 -12 9 -15 43 -12 32 2 42 -1 42 -12 0 -10 -13
-16 -42 -18 -34 -2 -43 0 -43 12 0 12 -11 16 -45 16 -33 0 -45 4 -45 15 0 11
12 15 45 15 34 0 45 -4 45 -16z m-230 -24 c0 -5 -7 -10 -15 -10 -10 0 -15 -10
-15 -30 0 -20 -5 -30 -15 -30 -10 0 -15 10 -15 30 0 20 5 30 15 30 8 0 15 5
15 10 0 6 7 10 15 10 8 0 15 -4 15 -10z m90 -100 c0 -16 5 -30 10 -30 6 0 10
7 10 15 0 10 10 15 30 15 25 0 30 -4 30 -25 0 -16 6 -25 15 -25 8 0 15 5 15
10 0 6 7 10 15 10 8 0 15 -7 15 -15 0 -8 -7 -15 -15 -15 -9 0 -15 -9 -15 -25
0 -16 -6 -25 -15 -25 -9 0 -15 9 -15 25 0 15 -6 25 -14 25 -9 0 -13 -9 -11
-25 2 -21 -2 -25 -25 -25 -29 0 -40 15 -40 56 0 33 -18 30 -22 -3 -2 -17 -9
-28 -18 -28 -11 0 -16 14 -18 58 l-3 57 36 0 c32 0 35 -2 35 -30z m-150 -30
c0 -20 -5 -30 -15 -30 -10 0 -15 10 -15 30 0 20 5 30 15 30 10 0 15 -10 15
-30z"/>
<path d="M210 766 c0 -8 -7 -17 -16 -20 -22 -8 -7 -26 22 -26 20 0 24 5 24 30
0 20 -5 30 -15 30 -8 0 -15 -6 -15 -14z"/>
<path d="M760 505 c0 -8 7 -15 15 -15 8 0 15 7 15 15 0 8 -7 15 -15 15 -8 0
-15 -7 -15 -15z"/>
<path d="M730 475 c0 -8 7 -15 15 -15 8 0 15 7 15 15 0 8 -7 15 -15 15 -8 0
-15 -7 -15 -15z"/>
<path d="M778 469 c-22 -23 -23 -39 -3 -39 8 0 15 7 15 15 0 8 7 15 15 15 8 0
15 7 15 15 0 20 -21 17 -42 -6z"/>
<path d="M670 360 c0 -5 7 -10 15 -10 8 0 15 5 15 10 0 6 -7 10 -15 10 -8 0
-15 -4 -15 -10z"/>
</g>
</svg>
