<?xml version="1.0" standalone="no"?>
<!DOCTYPE svg PUBLIC "-//W3C//DTD SVG 20010904//EN"
 "http://www.w3.org/TR/2001/REC-SVG-20010904/DTD/svg10.dtd">
<svg version="1.0" xmlns="http://www.w3.org/2000/svg"
 width="48.000000pt" height="48.000000pt" viewBox="0 0 100.000000 100.000000"
 preserveAspectRatio="xMidYMid meet">

<g transform="translate(0.000000,100.000000) scale(0.100000,-0.100000)"
fill="#000000" stroke="none">
<path d="M260 955 c0 -8 -7 -15 -15 -15 -8 0 -15 -7 -15 -15 0 -8 7 -15 15
-15 8 0 15 7 15 15 0 12 14 15 65 15 51 0 65 -3 65 -15 0 -12 20 -15 120 -15
100 0 120 3 120 15 0 13 -20 15 -120 15 -100 0 -120 3 -120 15 0 12 -14 15
-65 15 -51 0 -65 -3 -65 -15z"/>
<path d="M200 880 c0 -20 5 -30 15 -30 8 0 15 -7 15 -15 0 -11 11 -15 43 -15
l42 0 -3 -50 c-5 -65 13 -65 22 0 l7 50 39 0 c33 0 40 -3 40 -20 0 -11 -7 -20
-15 -20 -8 0 -15 -6 -15 -12 -1 -7 -14 -24 -30 -38 -33 -27 -38 -40 -15 -40 8
0 15 7 15 15 0 8 7 15 15 15 8 0 15 7 15 15 0 8 7 15 15 15 8 0 15 5 15 10 0
6 20 10 45 10 25 0 45 -4 45 -10 0 -5 7 -10 15 -10 8 0 15 -7 15 -15 0 -8 7
-15 15 -15 8 0 15 -7 15 -15 0 -8 7 -15 15 -15 8 0 15 -7 15 -15 0 -9 -9 -15
-22 -15 -65 -1 -68 -5 -68 -96 l0 -84 -45 0 -45 0 0 90 0 90 -45 0 c-25 0 -45
4 -45 10 0 14 -32 50 -40 45 -10 -6 0 -55 11 -55 5 0 9 -7 9 -15 0 -11 11 -15
40 -15 l40 0 0 -115 0 -115 90 0 90 0 0 114 c0 85 3 114 13 113 66 -2 77 3 77
33 0 20 -5 30 -15 30 -8 0 -15 7 -15 15 0 8 -7 15 -15 15 -8 0 -15 7 -15 15 0
8 -7 15 -15 15 -8 0 -15 7 -15 15 0 8 -7 15 -15 15 -8 0 -15 5 -15 10 0 6 18
10 39 10 22 0 43 5 46 10 4 6 -32 10 -99 10 -88 0 -106 3 -106 15 0 12 -17 15
-94 15 l-93 0 -6 30 c-4 17 -11 30 -17 30 -5 0 -10 -13 -10 -30z m310 -435 c0
-11 -12 -15 -45 -15 -33 0 -45 4 -45 15 0 11 12 15 45 15 33 0 45 -4 45 -15z"/>
<path d="M627 904 c-15 -16 9 -24 67 -24 57 0 64 -2 69 -22 10 -35 -23 -58
-83 -58 -38 0 -50 -4 -50 -15 0 -12 14 -15 64 -15 63 0 65 -1 68 -27 2 -16 8
-27 16 -26 6 2 12 -4 12 -12 0 -8 7 -15 15 -15 12 0 15 14 15 65 0 51 -3 65
-15 65 -10 0 -15 10 -15 30 0 20 -5 30 -15 30 -8 0 -15 7 -15 15 0 12 -14 15
-63 15 -35 0 -67 -3 -70 -6z"/>
<path d="M760 665 c0 -30 -32 -65 -59 -65 -10 0 -21 -7 -25 -15 -3 -9 0 -15 9
-15 10 0 15 -10 15 -30 0 -16 -4 -30 -10 -30 -5 0 -10 -7 -10 -15 0 -8 -4 -15
-10 -15 -5 0 -10 -11 -10 -25 0 -16 -6 -25 -15 -25 -10 0 -15 -10 -15 -30 0
-18 5 -29 12 -27 6 1 14 -6 16 -15 3 -16 -7 -18 -112 -18 -90 0 -117 3 -123
14 -6 10 -29 16 -73 18 -45 2 -64 7 -62 16 1 8 -10 12 -33 12 -19 0 -38 0 -42
1 -5 0 -9 -7 -11 -15 -2 -9 3 -16 12 -16 9 0 16 -7 16 -15 0 -8 7 -15 15 -15
8 0 15 -7 15 -15 0 -12 15 -15 79 -15 44 0 81 -4 83 -10 4 -13 284 -15 281 -1
-2 6 4 11 12 11 8 0 15 7 15 15 0 8 7 15 15 15 11 0 15 12 15 45 0 33 -4 45
-15 45 -8 0 -15 6 -15 14 0 8 -7 16 -15 20 -8 3 -15 15 -15 26 0 11 7 20 15
20 10 0 15 10 15 30 0 20 5 30 15 30 10 0 15 10 15 30 0 20 5 30 15 30 10 0
15 10 15 30 0 20 -5 30 -15 30 -9 0 -15 -9 -15 -25z"/>
<path d="M260 630 c0 -16 5 -30 10 -30 6 0 10 14 10 30 0 17 -4 30 -10 30 -5
0 -10 -13 -10 -30z"/>
<path d="M230 585 c0 -8 5 -15 10 -15 6 0 10 7 10 15 0 8 -4 15 -10 15 -5 0
-10 -7 -10 -15z"/>
<path d="M200 540 c0 -20 -5 -30 -15 -30 -12 0 -15 -13 -15 -55 0 -42 3 -55
15 -55 12 0 15 13 15 55 0 30 5 55 10 55 6 0 10 14 10 30 0 17 -4 30 -10 30
-5 0 -10 -13 -10 -30z"/>
</g>
</svg>
