<?xml version="1.0" standalone="no"?>
<!DOCTYPE svg PUBLIC "-//W3C//DTD SVG 20010904//EN"
 "http://www.w3.org/TR/2001/REC-SVG-20010904/DTD/svg10.dtd">
<svg version="1.0" xmlns="http://www.w3.org/2000/svg"
 width="48.000000pt" height="48.000000pt" viewBox="0 0 100.000000 100.000000"
 preserveAspectRatio="xMidYMid meet">

<g transform="translate(0.000000,100.000000) scale(0.100000,-0.100000)"
fill="#000000" stroke="none">
<path d="M520 935 c0 -8 -5 -15 -11 -15 -14 0 -39 -25 -39 -39 0 -6 -7 -11
-15 -11 -8 0 -15 7 -15 15 0 12 -17 15 -96 15 -52 0 -93 -4 -90 -9 3 -5 -6
-21 -19 -35 -14 -15 -25 -36 -25 -47 0 -27 24 -19 28 9 2 12 8 22 13 22 5 0 9
7 9 15 0 12 17 15 90 15 89 0 90 0 90 -25 0 -16 6 -25 15 -25 12 0 15 -14 15
-67 0 -67 0 -68 -27 -70 -15 0 -35 -10 -44 -22 -22 -27 -69 -39 -69 -17 0 9
-5 16 -11 16 -5 0 -7 -4 -4 -10 3 -5 1 -10 -5 -10 -7 0 -9 8 -5 20 4 11 2 20
-4 20 -6 0 -11 -9 -11 -19 0 -11 -5 -23 -10 -26 -6 -4 -8 -11 -5 -16 4 -5 1
-9 -4 -9 -6 0 -11 4 -11 10 0 12 -32 50 -42 50 -5 0 -8 -7 -8 -15 0 -8 7 -15
15 -15 9 0 15 -9 15 -24 0 -14 5 -28 10 -31 6 -4 8 -11 5 -16 -4 -5 8 -9 24
-9 21 0 31 5 31 15 0 8 5 15 10 15 6 0 10 -7 10 -15 0 -11 11 -15 40 -15 36 0
40 -2 40 -25 0 -16 6 -25 15 -25 10 0 15 -10 15 -30 0 -20 5 -30 15 -30 8 0
15 -4 15 -10 0 -5 11 -10 25 -10 23 0 25 -4 25 -40 0 -29 4 -40 15 -40 8 0 15
-7 15 -15 0 -8 5 -15 10 -15 6 0 10 9 10 20 0 11 4 20 9 20 5 0 16 3 25 6 10
4 17 -2 22 -20 3 -14 10 -23 15 -20 12 7 11 44 -1 44 -5 0 -10 25 -10 55 0 52
1 55 25 55 16 0 25 -6 25 -15 0 -8 7 -15 15 -15 8 0 15 7 15 15 0 10 11 15 35
15 l35 0 0 60 c0 45 4 62 15 66 21 9 21 114 0 114 -8 0 -15 -9 -15 -20 0 -11
-7 -20 -15 -20 -8 0 -15 7 -15 15 0 9 7 18 15 21 8 4 15 17 15 30 0 15 6 24
15 24 11 0 15 12 15 50 0 28 -4 50 -10 50 -5 0 -10 -7 -10 -16 0 -9 -17 -34
-39 -55 -32 -33 -45 -39 -80 -39 -30 0 -41 4 -41 15 0 8 -7 15 -15 15 -8 0
-15 7 -15 15 0 8 7 15 15 15 8 0 15 -7 15 -15 0 -11 12 -15 50 -15 38 0 50 4
50 15 0 8 5 15 10 15 6 0 10 11 10 25 0 14 -4 25 -9 25 -5 0 -12 11 -15 25 -5
18 -13 25 -31 25 -16 0 -25 6 -25 15 0 12 -15 15 -75 15 -60 0 -75 -3 -75 -15z
m0 -200 c0 -8 7 -15 15 -15 8 0 15 -9 15 -20 0 -16 -7 -20 -30 -20 -28 0 -30
3 -30 35 0 24 5 35 15 35 8 0 15 -7 15 -15z m260 -81 c0 -8 -7 -14 -15 -14 -8
0 -15 -7 -15 -15 0 -8 -8 -15 -17 -15 -15 0 -16 2 -3 10 13 8 12 10 -2 10 -11
0 -18 -8 -18 -20 0 -11 5 -20 10 -20 6 0 10 -7 10 -15 0 -8 5 -15 10 -15 6 0
10 -12 10 -27 0 -22 -2 -25 -10 -13 -9 13 -10 13 -10 0 0 -13 -1 -13 -10 0 -8
12 -10 9 -10 -12 0 -36 -26 -37 -35 -1 -5 21 -8 24 -16 12 -7 -12 -10 -12 -18
0 -6 10 -11 6 -19 -15 -6 -18 -11 -22 -11 -11 -1 10 -9 17 -21 17 -12 0 -20
-7 -21 -17 0 -15 -2 -15 -9 2 -7 17 -9 17 -9 3 -1 -13 -10 -18 -33 -19 l-33
-1 30 -8 c23 -6 25 -8 8 -9 -12 0 -28 -4 -37 -7 -13 -5 -16 2 -16 35 0 37 2
41 25 41 16 0 25 6 25 15 0 11 11 15 40 15 29 0 40 4 40 15 0 9 9 15 24 15 19
0 23 4 19 20 -7 25 -73 30 -73 5 0 -11 -12 -15 -50 -15 -29 0 -50 -5 -50 -11
0 -14 -52 -7 -58 9 -2 6 3 12 12 12 9 0 16 7 16 15 0 11 12 15 43 16 39 1 40
2 12 9 -16 4 -28 9 -25 10 10 5 266 15 288 11 12 -2 22 -10 22 -17z m-157 -41
c-7 -2 -21 -2 -30 0 -10 3 -4 5 12 5 17 0 24 -2 18 -5z m-145 -50 c-10 -2 -28
-2 -40 0 -13 2 -5 4 17 4 22 1 32 -1 23 -4z m103 -156 c27 -7 24 -34 -6 -39
-24 -5 -25 -3 -24 41 1 25 4 36 6 25 2 -12 13 -24 24 -27z m9 28 c0 -8 -2 -15
-4 -15 -2 0 -6 7 -10 15 -3 8 -1 15 4 15 6 0 10 -7 10 -15z"/>
<path d="M760 885 c0 -8 5 -15 10 -15 6 0 10 7 10 15 0 8 -4 15 -10 15 -5 0
-10 -7 -10 -15z"/>
<path d="M210 739 c0 -11 7 -27 15 -35 13 -13 17 -12 35 6 31 31 26 50 -15 50
-29 0 -35 -4 -35 -21z"/>
<path d="M318 725 c4 -34 5 -35 48 -35 44 0 44 0 44 35 l0 35 -48 0 -48 0 4
-35z m39 -21 c-3 -3 -12 -4 -19 -1 -8 3 -5 6 6 6 11 1 17 -2 13 -5z"/>
<path d="M253 515 c-16 -17 -17 -115 -2 -115 5 0 7 -5 4 -10 -3 -6 2 -13 12
-17 10 -4 27 -17 38 -30 16 -17 31 -23 63 -23 l42 0 0 55 c0 30 -4 55 -10 55
-5 0 -10 11 -10 25 0 16 -6 25 -15 25 -8 0 -15 7 -15 15 0 8 -7 15 -15 15 -8
0 -15 5 -15 10 0 15 -63 11 -77 -5z"/>
</g>
</svg>
